<svg viewBox="0 0 640 400" preserveAspectRatio="xMidYMid meet" height="400" width="640" xmlns="http://www.w3.org/2000/svg" xmlns:xlink="http://www.w3.org/1999/xlink"><rect width="640" height="400" x="0" y="0" opacity="0" data-fill-palette-color="background" id="background"></rect><g id="tight-bounds" transform="matrix(1,0,0,1,122.24000000000001,76.4)"><svg viewBox="0 0 395.52 247.2" height="247.2" width="395.52"><g><svg></svg></g><g><svg viewBox="0 0 395.52 247.2" height="247.2" width="395.52"><g transform="matrix(1,0,0,1,39.55199999999999,102.44202009377092)"><svg viewBox="0 0 316.416 42.31595981245814" height="42.31595981245814" width="316.416"><g><svg viewBox="0 0 316.416 42.31595981245814" height="42.31595981245814" width="316.416"><g><svg viewBox="0 0 316.416 42.31595981245814" height="42.31595981245814" width="316.416"><g id="textblocktransform"><svg viewBox="0 0 316.416 42.31595981245814" height="42.31595981245814" width="316.416" id="textblock"><g><svg viewBox="0 0 316.416 42.31595981245814" height="42.31595981245814" width="316.416"><g transform="matrix(1,0,0,1,0,0)"><svg width="316.416" viewBox="0.5 -29.450000762939453 223.94000244140625 29.950000762939453" height="42.31595981245814" data-palette-color="#ffffff"><path d="M22.45 0L14.45 0 0.5-29.35 7.5-29.35 16.9-9.1 18.25-5.5 18.7-5.5 20-9.1 29.5-29.35 36.3-29.35 35.5-26.35 22.45 0ZM63.05 0L48.45 0Q44.95 0 42.95-1 40.95-2 40.12-4 39.3-6 39.3-8.95L39.3-8.95 39.3-20.5Q39.3-23.4 40.1-25.38 40.9-27.35 42.9-28.38 44.9-29.4 48.45-29.4L48.45-29.4 63.05-29.4Q66.55-29.4 68.52-28.38 70.5-27.35 71.32-25.38 72.15-23.4 72.15-20.5L72.15-20.5 72.15-8.95Q72.15-4.55 70.2-2.27 68.25 0 63.05 0L63.05 0ZM49.9-4.8L49.9-4.8 61.65-4.8Q63.5-4.8 64.52-5.75 65.55-6.7 65.55-8.35L65.55-8.35 65.55-21.1Q65.55-22.55 64.5-23.58 63.45-24.6 61.65-24.6L61.65-24.6 49.9-24.6Q48.1-24.6 47-23.65 45.9-22.7 45.9-21.1L45.9-21.1 45.9-8.35Q45.9-6.65 46.97-5.73 48.05-4.8 49.9-4.8ZM111.6 0.5L111.6 0.5Q109.6 0.5 107.67-0.13 105.75-0.75 103.3-3.2L103.3-3.2 99.7-6.8Q97.5-9.05 94.87-10.1 92.25-11.15 88.3-11.15L88.3-11.15 86.75-11.15 86.75 0 80.15 0 80.15-25.4 79.65-29.45 101.8-29.45Q105-29.45 106.82-28.6 108.65-27.75 109.52-26.38 110.4-25 110.65-23.45 110.9-21.9 110.9-20.5L110.9-20.5 110.9-19.55Q110.9-18.45 110.6-17.1 110.3-15.75 109.45-14.45 108.6-13.15 107.02-12.25 105.45-11.35 102.9-11.2L102.9-11.2Q103.55-10.85 104.55-10.13 105.55-9.4 106.62-8.55 107.7-7.7 108.6-7 109.5-6.3 110-6L110-6Q111.8-4.95 113.2-4.55 114.6-4.15 115.5-4.1 116.4-4.05 116.55-4.05L116.55-4.05 115.55 0Q115.1 0.15 114.05 0.33 113 0.5 111.6 0.5ZM94.25-15.7L94.25-15.7Q96.15-15.7 97.65-15.78 99.15-15.85 100.35-15.95L100.35-15.95Q102.55-16.2 103.42-17.18 104.3-18.15 104.3-19.7L104.3-19.7 104.3-20.85Q104.3-22.45 103.45-23.55 102.6-24.65 100.4-24.65L100.4-24.65 86.75-24.65 86.75-15.95Q88.95-15.8 90.8-15.75 92.65-15.7 94.25-15.7ZM135.69 0L129.09 0 129.04-24.65 116.04-24.65 116.04-29.45 148.74-29.45 148.74-24.65 135.69-24.65 135.69 0ZM181.04 0L153.74 0 153.74-29.4 184.84-29.4 184.84-24.6 160.34-24.6 160.34-17.7 179.04-17.7 179.04-12.75 160.34-12.75 160.34-4.8 185.04-4.8 187.04-0.55Q187.04-0.35 185.69-0.18 184.34 0 181.04 0L181.04 0ZM196.54 0L188.54 0 190.44-3 201.54-14.7 188.54-29.4 196.54-29.4 206.19-18.35 206.74-18.35 216.44-29.4 224.44-29.4 222.49-26.45 211.44-14.7 224.44 0 216.44 0 206.74-11.15 206.19-11.15 196.54 0Z" opacity="1" transform="matrix(1,0,0,1,0,0)" fill="#ffffff" class="undefined-text-0" data-fill-palette-color="primary" id="text-0"></path></svg></g></svg></g></svg></g></svg></g><g></g></svg></g></svg></g><g mask="url(#bba1e252-1a13-4c66-8730-053368c357d5)"><g transform="matrix(2.7244444444444444, 0, 0, 2.7244444444444444, 90.96177569919162, 1)"><svg xmlns="http://www.w3.org/2000/svg" xmlns:xlink="http://www.w3.org/1999/xlink" version="1.1" x="0" y="0" viewBox="10.100000381469727 5.199999809265137 78.4000015258789 90" enable-background="new 0 0 100 100" xml:space="preserve" height="90" width="78.4000015258789" class="icon-none" data-fill-palette-color="accent" id="none"><polygon fill-rule="evenodd" clip-rule="evenodd" fill="#ffffff" points="88.5,28.2 68.4,59.9 68.5,22.3 " data-fill-palette-color="accent"></polygon><polygon fill-rule="evenodd" clip-rule="evenodd" fill="#ffffff" points="49.8,5.2 67.2,38.5 34.7,19.6 " data-fill-palette-color="accent"></polygon><polygon fill-rule="evenodd" clip-rule="evenodd" fill="#ffffff" points="67.8,38.3 67.8,22.3 60.8,24.5 " data-fill-palette-color="accent"></polygon><polygon fill-rule="evenodd" clip-rule="evenodd" fill="#ffffff" points="88.2,73.2 50.6,71.7 83.2,52.9 " data-fill-palette-color="accent"></polygon><polygon fill-rule="evenodd" clip-rule="evenodd" fill="#ffffff" points="69.1,60.3 82.8,52.3 77.4,47.4 " data-fill-palette-color="accent"></polygon><polygon fill-rule="evenodd" clip-rule="evenodd" fill="#ffffff" points="48.7,95.2 31.5,61.9 63.9,80.9 " data-fill-palette-color="accent"></polygon><polygon fill-rule="evenodd" clip-rule="evenodd" fill="#ffffff" points="50.5,72.2 64.2,80.2 65.8,73.1 " data-fill-palette-color="accent"></polygon><polygon fill-rule="evenodd" clip-rule="evenodd" fill="#ffffff" points="10.1,72 30.5,40.4 30.1,78 " data-fill-palette-color="accent"></polygon><polygon fill-rule="evenodd" clip-rule="evenodd" fill="#ffffff" points="30.9,62.1 30.8,78 37.8,75.8 " data-fill-palette-color="accent"></polygon><polygon fill-rule="evenodd" clip-rule="evenodd" fill="#ffffff" points="11,27 48.5,28.9 15.8,47.3 " data-fill-palette-color="accent"></polygon><polygon fill-rule="evenodd" clip-rule="evenodd" fill="#ffffff" points="30,40.1 16.1,47.9 21.5,52.9 " data-fill-palette-color="accent"></polygon><polygon fill-rule="evenodd" clip-rule="evenodd" fill="#ffffff" points="48.2,28.3 34.5,20.2 32.9,27.4 " data-fill-palette-color="accent"></polygon></svg></g></g></svg></g><defs><mask id="e6058199-c6a7-4634-bebe-21dd2ec936cb"><rect width="640" height="400" fill="white"></rect><rect width="348.05760000000004" height="62.295524869829876" fill="black" y="92.45223756508506" x="23.731199999999973" id="transform-me"></rect></mask><mask id="437eff2b-4718-4383-9e32-4c8614ebda33"><rect width="640" height="400" fill="white"></rect><rect width="348.05760000000004" height="62.295524869829876" fill="black" y="92.45223756508506" x="23.731199999999973" id="transform-me"></rect></mask><mask id="4f3a103c-52dc-48f4-a5f1-d8ee36f91a20"><rect width="640" height="400" fill="white"></rect><rect width="348.05760000000004" height="62.295524869829876" fill="black" y="92.45223756508506" x="23.731199999999973" id="transform-me"></rect></mask><mask id="e69e1526-21a1-4350-9ece-d515da94890a"><rect width="640" height="400" fill="white"></rect><rect width="348.05760000000004" height="62.295524869829876" fill="black" y="92.45223756508506" x="23.731199999999973" id="transform-me"></rect></mask><mask id="67eb4378-6ada-4628-8c1c-136b0a011c72"><rect width="640" height="400" fill="white"></rect><rect width="348.05760000000004" height="62.295524869829876" fill="black" y="92.45223756508506" x="23.731199999999973" id="transform-me"></rect></mask><mask id="71024845-9b7b-408e-90bd-9235b8023643"><rect width="640" height="400" fill="white"></rect><rect width="348.05760000000004" height="62.295524869829876" fill="black" y="92.45223756508506" x="23.731199999999973" id="transform-me"></rect></mask><mask id="1da6eec1-3fe5-40de-9144-2767cf381484"><rect width="640" height="400" fill="white"></rect><rect width="348.05760000000004" height="62.295524869829876" fill="black" y="92.45223756508506" x="23.731199999999973" id="transform-me"></rect></mask><mask id="33efe1ec-a095-4e64-aa36-77e66c135d8f"><rect width="640" height="400" fill="white"></rect><rect width="348.05760000000004" height="62.295524869829876" fill="black" y="92.45223756508506" x="23.731199999999973" id="transform-me"></rect></mask><mask id="2a5c2a85-76dc-49dd-a9b3-9451fab9170f"><rect width="640" height="400" fill="white"></rect><rect width="348.05760000000004" height="62.295524869829876" fill="black" y="92.45223756508506" x="23.731199999999973" id="transform-me"></rect></mask><mask id="0279ae9d-3bf2-4917-b225-e14767105bd1"><rect width="640" height="400" fill="white"></rect><rect width="348.05760000000004" height="62.295524869829876" fill="black" y="92.45223756508506" x="23.731199999999973" id="transform-me"></rect></mask><mask id="1c9dfa3d-26ec-4848-8257-3797a2295510"><rect width="640" height="400" fill="white"></rect><rect width="348.05760000000004" height="62.295524869829876" fill="black" y="92.45223756508506" x="23.731199999999973" id="transform-me"></rect></mask><mask id="e256bfd1-68bd-4179-9101-bf5e783a1994"><rect width="640" height="400" fill="white"></rect><rect width="348.05760000000004" height="62.295524869829876" fill="black" y="92.45223756508506" x="23.731199999999973" id="transform-me"></rect></mask><mask id="637638dd-4486-43ba-918a-00710296446c"><rect width="640" height="400" fill="white"></rect><rect width="348.05760000000004" height="62.295524869829876" fill="black" y="92.45223756508506" x="23.731199999999973" id="transform-me"></rect></mask><mask id="bdffa0b5-c84a-4bc8-851e-4e345dc0cc2f"><rect width="640" height="400" fill="white"></rect><rect width="348.05760000000004" height="62.295524869829876" fill="black" y="92.45223756508506" x="23.731199999999973" id="transform-me"></rect></mask><mask id="91021d65-7f9d-4f90-a655-c1302b3a0dc7"><rect width="640" height="400" fill="white"></rect><rect width="348.05760000000004" height="62.295524869829876" fill="black" y="92.45223756508506" x="23.731199999999973" id="transform-me"></rect></mask><mask id="b048e531-069b-4539-9b30-8cfbb22c31a7"><rect width="640" height="400" fill="white"></rect><rect width="348.05760000000004" height="62.295524869829876" fill="black" y="92.45223756508506" x="23.731199999999973" id="transform-me"></rect></mask><mask id="b4759198-af6d-486b-a1ac-7840badf27e6"><rect width="640" height="400" fill="white"></rect><rect width="348.05760000000004" height="62.295524869829876" fill="black" y="92.45223756508506" x="23.731199999999973" id="transform-me"></rect></mask><mask id="18127866-3995-476b-9f6c-a8dfd45c6fc6"><rect width="640" height="400" fill="white"></rect><rect width="348.05760000000004" height="62.295524869829876" fill="black" y="92.45223756508506" x="23.731199999999973" id="transform-me"></rect></mask><mask id="8802c76d-a56d-4387-8ece-4c80ba573029"><rect width="640" height="400" fill="white"></rect><rect width="348.05760000000004" height="62.295524869829876" fill="black" y="92.45223756508506" x="23.731199999999973" id="transform-me"></rect></mask><mask id="38754ad0-7b05-4df0-aed6-0e07b25c9456"><rect width="640" height="400" fill="white"></rect><rect width="348.05760000000004" height="62.295524869829876" fill="black" y="92.45223756508506" x="23.731199999999973" id="transform-me"></rect></mask><mask id="10f2fc22-74fa-4bc9-b060-b414d5c5ac45"><rect width="640" height="400" fill="white"></rect><rect width="348.05760000000004" height="62.295524869829876" fill="black" y="92.45223756508506" x="23.731199999999973" id="transform-me"></rect></mask><mask id="df89f538-7f81-491f-aae4-fdaab9cd4bc6"><rect width="640" height="400" fill="white"></rect><rect width="348.05760000000004" height="62.295524869829876" fill="black" y="92.45223756508506" x="23.731199999999973" id="transform-me"></rect></mask><mask id="9c61c64f-3b27-412b-b5bc-47fc2dc85d50"><rect width="640" height="400" fill="white"></rect><rect width="348.05760000000004" height="62.295524869829876" fill="black" y="92.45223756508506" x="23.731199999999973" id="transform-me"></rect></mask><mask id="76b5ebe0-6c0e-4bc6-867c-d9defbdd5286"><rect width="640" height="400" fill="white"></rect><rect width="348.05760000000004" height="62.295524869829876" fill="black" y="92.45223756508506" x="23.731199999999973" id="transform-me"></rect></mask><mask id="cb67fc70-2509-4fd6-afb4-02b64ef062c7"><rect width="640" height="400" fill="white"></rect><rect width="348.05760000000004" height="62.295524869829876" fill="black" y="92.45223756508506" x="23.731199999999973" id="transform-me"></rect></mask><mask id="3685fcbc-fd45-4e25-9fcc-f0c53d79dad4"><rect width="640" height="400" fill="white"></rect><rect width="348.05760000000004" height="62.295524869829876" fill="black" y="92.45223756508506" x="23.731199999999973" id="transform-me"></rect></mask><mask id="66329696-fdf0-4d25-972d-de06ddf36270"><rect width="640" height="400" fill="white"></rect><rect width="348.05760000000004" height="62.295524869829876" fill="black" y="92.45223756508506" x="23.731199999999973" id="transform-me"></rect></mask><mask id="962d5851-8659-4cfd-a2cd-d9c2bd5149e9"><rect width="640" height="400" fill="white"></rect><rect width="348.05760000000004" height="62.295524869829876" fill="black" y="92.45223756508506" x="23.731199999999973" id="transform-me"></rect></mask><mask id="bba1e252-1a13-4c66-8730-053368c357d5"><rect width="640" height="400" fill="white"></rect><rect width="348.05760000000004" height="62.295524869829876" fill="black" y="92.45223756508506" x="23.731199999999973" id="transform-me"></rect></mask></defs></svg><rect width="395.52" height="247.2" fill="none" stroke="none" visibility="hidden"></rect></g></svg>